<svg version="1.2" xmlns="http://www.w3.org/2000/svg" viewBox="0 0 64 64" width="64" height="64">
	<title>GST</title>
	<style>
		.s0 { fill: #000000 } 
	</style>
	<path id="{}" class="s0" aria-label="{}"  d="m21.6 56.9h2.1v4.5h-1.9q-7.8 0-10.5-2.3-2.6-2.3-2.6-9.2v-7.5q0-4.7-1.7-6.5-1.7-1.8-6.1-1.8h-1.9v-4.5h1.9q4.5 0 6.1-1.8 1.7-1.8 1.7-6.4v-7.5q0-6.9 2.6-9.2 2.7-2.3 10.5-2.3h1.9v4.4h-2.1q-4.4 0-5.8 1.4-1.3 1.4-1.3 5.8v7.8q0 4.9-1.4 7.1-1.4 2.2-4.9 3 3.5 0.8 4.9 3 1.4 2.3 1.4 7.1v7.8q0 4.4 1.3 5.8 1.4 1.3 5.8 1.3zm18.1 4.5v-4.5h2.2q4.4 0 5.7-1.3 1.3-1.3 1.3-5.8v-7.8q0-4.8 1.4-7.1 1.4-2.2 4.9-3-3.5-0.8-4.9-3-1.4-2.2-1.4-7.1v-7.8q0-4.4-1.3-5.8-1.3-1.4-5.7-1.4h-2.2v-4.4h2q7.8 0 10.4 2.3 2.6 2.3 2.6 9.2v7.5q0 4.6 1.7 6.4 1.7 1.8 6.1 1.8h1.9v4.5h-1.9q-4.4 0-6.1 1.8-1.7 1.8-1.7 6.5v7.5q0 6.9-2.6 9.2-2.6 2.3-10.4 2.3z"/>
	<path id="g" class="s0" aria-label="g"  d="m38.8 26.6q0-4.7-1.9-7.3-2-2.6-5.5-2.6-3.4 0-5.4 2.6-1.9 2.6-1.9 7.3 0 4.6 1.9 7.2 2 2.6 5.4 2.6 3.5 0 5.5-2.6 1.9-2.6 1.9-7.2zm4.3-12.9v23q0 6.7-3 10-2.9 3.3-9.1 3.3-2.3 0-4.3-0.3-2-0.4-3.9-1.1v-4.2q1.9 1 3.8 1.5 1.8 0.5 3.7 0.5 4.3 0 6.4-2.2 2.1-2.2 2.1-6.7v-2.1q-1.3 2.3-3.4 3.5-2.1 1.1-5 1.1-4.8 0-7.8-3.7-3-3.7-3-9.7 0-6.1 3-9.8 3-3.7 7.8-3.7 2.9 0 5 1.2 2.1 1.1 3.4 3.4v-3.9z"/>
</svg>