<svg version="1.2" xmlns="http://www.w3.org/2000/svg" viewBox="0 0 250 150" width="250" height="150"><style></style><path  d="m40.3 114.7v7.9q-7.1 0-12.3-2.1-5.1-2-7.8-6.1-2.7-4.1-2.7-10.2v-17.6q0-4.1-1.6-6.6-1.7-2.5-4.8-3.6-3.2-1.2-7.8-1.2v-7.9q4.6-0.1 7.8-1.2 3.1-1.1 4.8-3.6 1.6-2.4 1.6-6.5v-17.7q0-6.2 2.8-10.2 2.9-4.1 8-6.1 5.2-2 12-2v7.8q-4.2 0.1-7.3 1.3-3 1.3-4.6 3.7-1.5 2.5-1.5 6.4v17.3q0 6-3.1 9.6-3 3.6-9.3 4.8v0.6q6.4 1.1 9.4 4.8 3 3.6 3 9.6v17.6q0 3.9 1.5 6.4 1.6 2.4 4.6 3.6 3 1.1 7.3 1.2zm31.4 17.6q-12.4 0-19.1-4.6-6.7-4.7-6.7-13 0-5.9 3.7-10.1 3.8-4.2 10.5-5.6-2.5-1.1-4.3-3.4-1.7-2.3-1.7-5.3 0-3.5 1.9-6.1 2-2.6 5.9-5-4.9-2-8-6.8-3.1-4.8-3.1-11.2 0-6.8 2.9-11.5 2.8-4.9 8.1-7.4 5.4-2.5 12.9-2.5 1.7 0 3.4 0.1 1.7 0.2 3.2 0.5 1.6 0.2 2.7 0.5h21.6v6.2l-11.6 1.4q1.8 2.2 2.9 5.4 1.2 3.2 1.2 7 0 9.4-6.4 15-6.4 5.5-17.5 5.5-2.7 0-5.4-0.4-2.9 1.5-4.3 3.4-1.5 1.9-1.5 4.4 0 1.8 1.1 2.9 1.2 1.1 3.3 1.6 2.1 0.5 5.1 0.5h11.1q10.3 0 15.7 4.3 5.5 4.3 5.5 12.6 0 10.4-8.5 16-8.5 5.6-24.6 5.6zm0.3-7.5q7.8 0 13-1.6 5.1-1.6 7.7-4.5 2.5-3 2.5-7.1 0-3.8-1.7-5.6-1.7-2-5-2.6-3.4-0.7-8.2-0.7h-10.9q-4.3 0-7.4 1.3-3.2 1.3-4.9 3.9-1.7 2.6-1.7 6.4 0 5.2 4.3 7.9 4.4 2.6 12.3 2.6zm2.5-50.3q6.8 0 10.3-3.5 3.4-3.4 3.4-10 0-7.1-3.5-10.6-3.5-3.6-10.3-3.6-6.6 0-10.1 3.7-3.5 3.6-3.5 10.6 0 6.5 3.5 9.9 3.6 3.5 10.2 3.5zm84.3 12.3q0 6-3.1 10.1-3 4.1-8.6 6.2-5.6 2-13.3 2-6.6 0-11.4-1-4.9-1-8.5-2.9v-8.8q3.9 1.9 9.2 3.4 5.3 1.6 10.9 1.6 8.2 0 11.9-2.6 3.6-2.7 3.6-7.2 0-2.6-1.5-4.6-1.4-2-4.8-3.8-3.5-1.9-9.6-4.2-6-2.3-10.4-4.5-4.4-2.3-6.8-5.6-2.4-3.2-2.4-8.5 0-7.9 6.5-12.2 6.5-4.3 17-4.3 5.7 0 10.6 1.1 5 1.1 9.3 3l-3.2 7.7q-3.9-1.7-8.3-2.8-4.5-1.2-9.1-1.2-6.6 0-10.1 2.2-3.5 2.2-3.5 6 0 2.9 1.6 4.8 1.6 1.9 5.3 3.5 3.6 1.7 9.5 4 5.9 2.1 10.2 4.5 4.3 2.3 6.6 5.6 2.4 3.3 2.4 8.5zm35.7 10.5q2.3 0 4.8-0.4 2.4-0.4 4-0.9v7.4q-1.7 0.7-4.7 1.2-2.9 0.5-5.7 0.5-5 0-9.1-1.7-4.1-1.8-6.5-5.9-2.4-4.2-2.4-11.7v-37.3h-9v-4.6l9-3.8 3.8-13.7h5.8v14.6h18.4v7.5h-18.4v37.1q0 5.9 2.7 8.8 2.7 2.9 7.3 2.9zm15.3 25.3v-7.9q4.3-0.1 7.3-1.3 3-1.2 4.5-3.6 1.6-2.5 1.6-6.4v-17.4q0-6 3.1-9.6 3.1-3.7 9.3-4.7v-0.7q-6.3-1.2-9.4-4.8-3-3.6-3-9.6v-17.5q0-3.9-1.5-6.4-1.6-2.5-4.6-3.6-2.9-1.2-7.3-1.3v-7.8q7.2 0.1 12.3 2.1 5.1 2 7.8 6.1 2.8 4 2.8 10.2v17.5q0 4.1 1.6 6.6 1.6 2.5 4.7 3.6 3.2 1.2 7.9 1.2v7.9q-4.7 0-7.9 1.2-3.1 1.1-4.7 3.6-1.6 2.5-1.6 6.5v17.8q0 6.1-2.9 10.2-2.9 4-8 6.1-5.1 2-12 2z"/></svg>